<?xml version="1.0" encoding="iso-8859-1"?>
<!-- Generator: Adobe Illustrator 19.0.0, SVG Export Plug-In . SVG Version: 6.00 Build 0)  -->
<svg version="1.1" id="Capa_1" xmlns="http://www.w3.org/2000/svg" xmlns:xlink="http://www.w3.org/1999/xlink" x="0px" y="0px"
	 viewBox="0 0 512 512" style="enable-background:new 0 0 512 512;" xml:space="preserve">
<g>
	<path style="fill:#FFDC13;" d="M443.733,8.533c-14.14,0-25.6,11.46-25.6,25.6v8.533h51.2v-8.533
		C469.333,19.994,457.873,8.533,443.733,8.533z"/>
	<rect x="418.133" y="187.733" style="fill:#FFDC13;" width="51.2" height="256"/>
</g>
<polygon style="fill:#FFA511;" points="418.133,443.733 469.333,443.733 443.733,494.933 "/>
<rect x="8.533" y="42.667" style="fill:#B7E5FF;" width="375.467" height="460.8"/>
<path style="fill:#99C8E0;" d="M8.533,443.733v59.733H384V236.373C302.839,365.466,161.024,443.793,8.533,443.733z"/>
<g>
	<rect x="85.333" y="8.533" style="fill:#235087;" width="221.867" height="34.133"/>
	<path style="fill:#235087;" d="M298.667,102.4h-85.333c-4.71,0-8.533-3.823-8.533-8.533c0-4.71-3.823-8.533-8.533-8.533
		s-8.533,3.823-8.533,8.533c0,4.71-3.823,8.533-8.533,8.533H93.867c-4.71,0-8.533-3.823-8.533-8.533v-51.2H102.4v42.667h69.726
		c4.702-13.329,19.328-20.326,32.657-15.625c7.305,2.577,13.047,8.32,15.625,15.625h69.726V42.667H307.2v51.2
		C307.2,98.577,303.377,102.4,298.667,102.4z"/>
</g>
<circle style="fill:#4DB5FF;" cx="85.333" cy="153.6" r="25.6"/>
<circle style="fill:#FFDC13;" cx="85.333" cy="238.933" r="25.6"/>
<g>
	<path style="fill:#6B778A;" d="M332.8,145.067H213.333c-4.71,0-8.533-3.823-8.533-8.533s3.823-8.533,8.533-8.533H332.8
		c4.71,0,8.533,3.823,8.533,8.533S337.51,145.067,332.8,145.067z"/>
	<path style="fill:#6B778A;" d="M179.2,145.067h-34.133c-4.71,0-8.533-3.823-8.533-8.533s3.823-8.533,8.533-8.533H179.2
		c4.71,0,8.533,3.823,8.533,8.533S183.91,145.067,179.2,145.067z"/>
	<path style="fill:#6B778A;" d="M332.8,179.2h-68.267c-4.71,0-8.533-3.823-8.533-8.533s3.823-8.533,8.533-8.533H332.8
		c4.71,0,8.533,3.823,8.533,8.533S337.51,179.2,332.8,179.2z"/>
	<path style="fill:#6B778A;" d="M230.4,179.2h-85.333c-4.71,0-8.533-3.823-8.533-8.533s3.823-8.533,8.533-8.533H230.4
		c4.71,0,8.533,3.823,8.533,8.533S235.11,179.2,230.4,179.2z"/>
	<path style="fill:#6B778A;" d="M332.8,230.4h-34.133c-4.71,0-8.533-3.823-8.533-8.533c0-4.71,3.823-8.533,8.533-8.533H332.8
		c4.71,0,8.533,3.823,8.533,8.533C341.333,226.577,337.51,230.4,332.8,230.4z"/>
	<path style="fill:#6B778A;" d="M264.533,230.4H145.067c-4.71,0-8.533-3.823-8.533-8.533c0-4.71,3.823-8.533,8.533-8.533h119.467
		c4.71,0,8.533,3.823,8.533,8.533C273.067,226.577,269.244,230.4,264.533,230.4z"/>
	<path style="fill:#6B778A;" d="M332.8,264.533h-93.867c-4.71,0-8.533-3.823-8.533-8.533c0-4.71,3.823-8.533,8.533-8.533H332.8
		c4.71,0,8.533,3.823,8.533,8.533C341.333,260.71,337.51,264.533,332.8,264.533z"/>
	<path style="fill:#6B778A;" d="M204.8,264.533h-59.733c-4.71,0-8.533-3.823-8.533-8.533c0-4.71,3.823-8.533,8.533-8.533H204.8
		c4.71,0,8.533,3.823,8.533,8.533C213.333,260.71,209.51,264.533,204.8,264.533z"/>
</g>
<rect x="418.133" y="42.667" style="fill:#FFA511;" width="51.2" height="145.067"/>
<path style="fill:#163768;" d="M256,452.267h-25.6c-2.261,0-4.437-0.896-6.033-2.5l-34.133-34.133l12.066-12.066l31.633,31.633H256
	V452.267z"/>
<path style="fill:#235087;" d="M202.3,364.433l-12.066-12.066l34.133-34.133c1.596-1.604,3.772-2.5,6.033-2.5H256V332.8h-22.067
	L202.3,364.433z"/>
<circle style="fill:#E5AF17;" cx="307.2" cy="443.733" r="25.6"/>
<path style="fill:#FFDC13;" d="M200.934,448.401C219.657,432.239,230.409,408.73,230.4,384h-93.867L200.934,448.401z"/>
<g>
	<path style="fill:#FFA511;" d="M136.533,384H230.4c0.102-47.232-38.101-85.606-85.333-85.709s-85.606,38.101-85.709,85.333
		s38.101,85.606,85.333,85.709c20.659,0.043,40.636-7.39,56.243-20.932L136.533,384z"/>
	<circle style="fill:#FFA511;" cx="307.2" cy="324.267" r="25.6"/>
</g>
<path style="fill:#E5AF17;" d="M200.934,448.401c18.654-16.111,29.397-39.526,29.466-64.171
	c-20.292,11.75-41.481,21.862-63.377,30.251L200.934,448.401z"/>
<g>
	<path style="fill:#F08015;" d="M79.078,438.093c29.79,36.412,83.456,41.779,119.868,11.989c0.674-0.546,1.34-1.109,1.988-1.681
		l-33.92-33.92C138.598,425.361,109.124,433.28,79.078,438.093z"/>
	<path style="fill:#F08015;" d="M289.946,343.04c10.291,9.6,26.428,9.037,36.028-1.254c8.61-9.233,9.165-23.381,1.297-33.263
		C315.494,320.734,303.036,332.254,289.946,343.04z"/>
</g>
<path style="fill:#E5AF17;" d="M469.333,443.733V409.6c0.009,12.211-3.746,24.132-10.752,34.133H469.333z"/>
<path style="fill:#F08015;" d="M429.227,465.963l14.507,28.971l25.6-51.2h-10.752C451.371,454.042,441.105,461.824,429.227,465.963z
	"/>
<path style="fill:#EF2648;" d="M435.2,486.4c0,4.71,3.823,8.533,8.533,8.533c4.71,0,8.533-3.823,8.533-8.533v-8.533H435.2V486.4z"/>
<path style="fill:#E5AF17;" d="M469.214,42.667h0.119v-8.533c0.034-14.106-11.375-25.566-25.481-25.6
	c-5.342-0.009-10.556,1.647-14.899,4.753C444.996,18.859,459.017,29.082,469.214,42.667z"/>
<path d="M8.533,512H384c4.71,0,8.533-3.823,8.533-8.533v-460.8c0-4.71-3.823-8.533-8.533-8.533h-76.8v-25.6
	c0-4.71-3.823-8.533-8.533-8.533h-204.8c-4.71,0-8.533,3.823-8.533,8.533v25.6h-76.8C3.823,34.133,0,37.956,0,42.667v460.8
	C0,508.177,3.823,512,8.533,512z M102.4,51.2h187.733v34.133h-69.726c-4.702-13.329-19.328-20.326-32.657-15.625
	c-7.305,2.577-13.047,8.32-15.625,15.625H102.4V51.2z M102.4,17.067h187.733v17.067H102.4V17.067z M17.067,51.2h68.267v42.667
	c0,4.71,3.823,8.533,8.533,8.533H179.2c4.71,0,8.533-3.823,8.533-8.533c0-4.71,3.823-8.533,8.533-8.533s8.533,3.823,8.533,8.533
	c0,4.71,3.823,8.533,8.533,8.533h85.333c4.71,0,8.533-3.823,8.533-8.533V51.2h68.267v443.733h-358.4V51.2z"/>
<path d="M85.333,187.733c18.85,0,34.133-15.283,34.133-34.133s-15.283-34.133-34.133-34.133S51.2,134.75,51.2,153.6
	S66.483,187.733,85.333,187.733z M85.333,136.533c9.429,0,17.067,7.637,17.067,17.067c0,9.429-7.637,17.067-17.067,17.067
	s-17.067-7.637-17.067-17.067C68.267,144.171,75.904,136.533,85.333,136.533z"/>
<path d="M85.333,273.067c18.85,0,34.133-15.283,34.133-34.133S104.183,204.8,85.333,204.8S51.2,220.083,51.2,238.933
	S66.483,273.067,85.333,273.067z M85.333,221.867c9.429,0,17.067,7.637,17.067,17.067c0,9.429-7.637,17.067-17.067,17.067
	s-17.067-7.637-17.067-17.067C68.267,229.504,75.904,221.867,85.333,221.867z"/>
<path d="M477.867,34.987v-0.853C477.867,15.283,462.583,0,443.733,0S409.6,15.283,409.6,34.133v409.6c0,0.111,0.06,0.205,0.06,0.307
	c0.034,0.896,0.213,1.783,0.529,2.628c0.077,0.188,0.119,0.384,0.196,0.563c0.077,0.179,0.06,0.213,0.111,0.316l24.704,49.4v6.519
	c0,4.71,3.823,8.533,8.533,8.533c4.71,0,8.533-3.823,8.533-8.533v-6.519l24.747-49.4c0.051-0.102,0.06-0.213,0.111-0.316
	s0.119-0.375,0.196-0.563c0.316-0.845,0.495-1.732,0.529-2.628c0-0.111,0.06-0.196,0.06-0.307V52.77
	c10.172,3.618,16.99,13.235,17.024,24.03v76.8c0,4.71,3.823,8.533,8.533,8.533c4.71,0,8.533-3.823,8.533-8.533V76.8
	C511.974,56.533,497.715,39.066,477.867,34.987z M426.667,196.267H460.8V435.2h-34.133V196.267z M460.8,179.2h-34.133v-128H460.8
	V179.2z M443.733,17.067c9.429,0,17.067,7.637,17.067,17.067h-34.133C426.667,24.704,434.304,17.067,443.733,17.067z
	 M443.733,475.853l-11.793-23.586h23.586L443.733,475.853z"/>
<path d="M224.367,318.234l-6.554,6.554c-32.683-40.243-91.802-46.37-132.036-13.687s-46.37,91.802-13.696,132.036
	s91.802,46.37,132.036,13.687c0.802-0.657,1.596-1.323,2.381-1.997l0,0c4.053-3.567,7.782-7.484,11.162-11.691l6.647,6.647
	c1.621,1.604,3.814,2.5,6.093,2.483H256V435.2h-22.067l-6.511-6.511c15.309-27.853,15.351-61.594,0.111-89.489l6.4-6.4H256v-17.067
	h-25.6C228.139,315.733,225.963,316.629,224.367,318.234z M205.653,431.044c-1.451,1.86-2.961,3.678-4.582,5.41l-43.938-43.921
	h64.256c-0.922,8.149-3.14,16.102-6.579,23.543l-12.51-12.51l-12.066,12.066L205.653,431.044z M221.389,375.467h-84.855
	c-4.71,0-8.533,3.823-8.533,8.533c0,2.261,0.896,4.429,2.5,6.033l57.532,57.54c-35.123,23.782-82.867,14.592-106.658-20.523
	s-14.592-82.867,20.523-106.658c33.527-22.707,78.933-15.479,103.748,16.521l-15.454,15.454l12.066,12.066l12.476-12.467
	C218.214,359.39,220.459,367.326,221.389,375.467z"/>
<path d="M307.2,290.133c-18.85,0-34.133,15.283-34.133,34.133S288.35,358.4,307.2,358.4s34.133-15.283,34.133-34.133
	S326.05,290.133,307.2,290.133z M307.2,341.333c-9.429,0-17.067-7.637-17.067-17.067c0-9.429,7.637-17.067,17.067-17.067
	s17.067,7.637,17.067,17.067C324.267,333.696,316.629,341.333,307.2,341.333z"/>
<path d="M307.2,409.6c-18.85,0-34.133,15.283-34.133,34.133s15.283,34.133,34.133,34.133s34.133-15.283,34.133-34.133
	S326.05,409.6,307.2,409.6z M307.2,460.8c-9.429,0-17.067-7.637-17.067-17.067c0-9.429,7.637-17.067,17.067-17.067
	s17.067,7.637,17.067,17.067C324.267,453.163,316.629,460.8,307.2,460.8z"/>
<g>
</g>
<g>
</g>
<g>
</g>
<g>
</g>
<g>
</g>
<g>
</g>
<g>
</g>
<g>
</g>
<g>
</g>
<g>
</g>
<g>
</g>
<g>
</g>
<g>
</g>
<g>
</g>
<g>
</g>
</svg>
