<?xml version="1.0" encoding="iso-8859-1"?>
<!-- Generator: Adobe Illustrator 19.0.0, SVG Export Plug-In . SVG Version: 6.00 Build 0)  -->
<svg version="1.1" id="Capa_1" xmlns="http://www.w3.org/2000/svg" xmlns:xlink="http://www.w3.org/1999/xlink" x="0px" y="0px"
	 viewBox="0 0 499.592 499.592" style="enable-background:new 0 0 499.592 499.592;" xml:space="preserve">
<path style="fill:#FFA64D;" d="M408,113.796v264c0,44.184-35.816,80-80,80s-80-35.816-80-80v-112v-16v-128
	c0-61.856-50.144-112-112-112s-112,50.144-112,112v112h32v-112c0-44.184,35.816-80,80-80s80,35.816,80,80v256
	c0,61.856,50.144,112,112,112s112-50.144,112-112v-264H408z"/>
<path style="fill:#333333;" d="M499.592,40.948L496,33.796l3.576,7.152l-7.16-14.312c-1.352,0.68-22.304,11.496-39.4,34.84
	c6.56-31.728,17.248-46.696,17.384-46.888l-12.8-9.592c-1.008,1.336-23.736,32.624-25.44,100.8H432v-104h-16v104h-0.168
	C414.128,37.62,391.408,6.34,390.4,4.996l-12.8,9.6c0.152,0.208,10.904,15,17.456,46.992c-17.112-23.408-38.12-34.264-39.48-34.944
	l-7.16,14.312c0.448,0.216,44.08,22.608,51.576,73.568v263.272c0,39.704-32.296,72-72,72s-72-32.296-72-72v-112h-16v26.392
	c-6.496,2.4-11.856,4.768-16,6.92V237.7c2.64-1.848,7.72-4.896,16-8.352v20.448h16v-128c0-18.624-4.384-36.2-11.992-51.944
	l0.104-0.176c-0.088-0.056-0.176-0.096-0.264-0.144C224.384,29.508,183.424,1.796,136,1.796c-66.168,0-120,53.824-120,120v104H0v232
	c0,22.056,17.944,40,40,40s40-17.944,40-40v-232H64v-104c0-39.704,32.296-72,72-72s72,32.296,72,72v256c0,66.168,53.832,120,120,120
	s120-53.832,120-120V114.524C455.464,63.836,499.152,41.172,499.592,40.948z M424.28,416.956
	c-9.184,5.312-16.864,7.976-22.848,9.208C410.616,412.276,416,395.66,416,377.796v-10.392c6.496-2.4,11.856-4.768,16-6.92v17.312
	C432,391.652,429.224,404.86,424.28,416.956z M432,181.9c-2.64,1.848-7.72,4.896-16,8.352v-68.456h16V181.9z M432,341.9
	c-2.64,1.848-7.72,4.896-16,8.352v-62.84c6.496-2.4,11.856-4.768,16-6.92V341.9z M432,261.9c-2.64,1.848-7.72,4.896-16,8.352v-62.84
	c6.496-2.4,11.856-4.768,16-6.92V261.9z M240,309.348v64.24c-3.856,3.048-9.56,8.792-14.872,18.68
	c-0.664-4.744-1.128-9.552-1.128-14.472v-60.104C226.64,315.852,231.72,312.804,240,309.348z M240,132.188
	c-6.496,2.4-11.856,4.768-16,6.92v-17.312c0-18.048-5.48-34.832-14.832-48.816c5.704,0.896,13.32,3.216,22.56,8.184
	C237.04,93.652,240,107.388,240,121.796V132.188z M224,219.1v-61.408c2.64-1.848,7.72-4.896,16-8.352v62.84
	C233.504,214.58,228.144,216.948,224,219.1z M152.168,19.18c-9.68,5.288-15.304,10.92-18.288,14.72
	c-16.032,0.384-30.976,5.08-43.8,12.968c1.416-5.976,4.224-13.512,9.472-22.352c11.368-4.272,23.608-6.72,36.448-6.72
	C141.512,17.796,146.88,18.356,152.168,19.18z M48,174.244c-8.28-3.456-13.36-6.504-16-8.352v-44.096
	c0-5.144,0.504-10.168,1.224-15.112C38.24,115.508,43.76,121.156,48,124.572V174.244z M40,481.796c-13.232,0-24-10.768-24-24v-184
	h48v184C64,471.028,53.232,481.796,40,481.796z M64,257.796H16v-16h48V257.796z M32,225.796v-41.304c4.144,2.152,9.504,4.52,16,6.92
	v34.384H32z M49.968,103.404c-3.52-5.04-7.136-12.16-9.784-22.032c7.64-18.04,20.272-33.432,36.096-44.584
	C72.824,47.26,72.416,55.38,72.8,60.7C61.552,72.332,53.464,87.02,49.968,103.404z M155.32,36.004
	c4.912-3.312,11.992-6.864,21.896-9.648c16.296,7.064,30.376,18.216,41.088,32.104c-11.048-2.88-18.968-2.296-23.072-1.552
	C184.136,46.764,170.48,39.412,155.32,36.004z M232.176,418.212c2.72-10.224,6.28-17.544,9.624-22.664
	c3.224,15.656,10.68,29.744,21.032,41.168c-0.608,4.84-0.648,13.04,2.632,23.976C250.968,449.732,239.352,435.164,232.176,418.212z
	 M288.84,474.076c-5.32-9.192-7.984-16.864-9.216-22.856c12.744,8.424,27.8,13.544,43.984,14.344c3,3.864,8.792,9.688,18.864,15.096
	c-4.744,0.672-9.552,1.136-14.472,1.136C314.144,481.796,300.936,479.02,288.84,474.076z M368.416,473.62
	c-10.224-2.72-17.544-6.28-22.664-9.624c15.672-3.224,29.768-10.696,41.2-21.056c1.528,0.192,3.28,0.352,5.464,0.352
	c4.72,0,10.968-0.712,18.48-2.968C399.936,454.828,385.368,466.444,368.416,473.62z"/>
<g>
</g>
<g>
</g>
<g>
</g>
<g>
</g>
<g>
</g>
<g>
</g>
<g>
</g>
<g>
</g>
<g>
</g>
<g>
</g>
<g>
</g>
<g>
</g>
<g>
</g>
<g>
</g>
<g>
</g>
</svg>
